<svg id="Logo" xmlns="http://www.w3.org/2000/svg" viewBox="0 0 530 530"><defs><style>.cls-1{fill:#fff;stroke:#fff;}.cls-1,.cls-2,.cls-3{stroke-miterlimit:10;}.cls-2{fill:#0080f4;}.cls-2,.cls-3{stroke:#0080f4;}.cls-3{fill:none;stroke-width:17px;}</style></defs><rect class="cls-1" x="0.5" y="0.5" width="529" height="529"/><path class="cls-2" d="M1618.51,1145.49a8.39,8.39,0,0,1,.37,2.47,8.61,8.61,0,0,1-7.52,8.54H1568l-29.39-38.26,0,0-2.36-3.06,0,0-48.11-62.62,47.79-62.2,0,0,3-3.89,0,0L1568,948.5h43.88a8.6,8.6,0,0,1,6.65,11h0l-3.62,4.71-5.87,7.63-62,80.63,61.9,80.56,5.83,7.58Z" transform="translate(-1222 -790)"/><path class="cls-2" d="M1505.5,956.87v19.19a8.62,8.62,0,0,1-7.45,7.44H1438.5v162.74a14,14,0,0,1-10.24,10.26h-24.62a14,14,0,0,1-10.14-9.91V983.5h-55.64a8.63,8.63,0,0,1-7.36-6.86V956.28a8.61,8.61,0,0,1,6.88-6.78h161.15A8.61,8.61,0,0,1,1505.5,956.87Z" transform="translate(-1222 -790)"/><circle class="cls-3" cx="264.5" cy="262.5" r="240"/></svg>